<?xml version="1.0" encoding="utf-8"?>
<!-- Generator: Adobe Illustrator 27.9.0, SVG Export Plug-In . SVG Version: 6.00 Build 0)  -->
<svg version="1.1"
	 id="svg4166" xmlns:sodipodi="http://sodipodi.sourceforge.net/DTD/sodipodi-0.dtd" xmlns:inkscape="http://www.inkscape.org/namespaces/inkscape" xmlns:rdf="http://www.w3.org/1999/02/22-rdf-syntax-ns#" xmlns:svg="http://www.w3.org/2000/svg" xmlns:dc="http://purl.org/dc/elements/1.1/" xmlns:cc="http://creativecommons.org/ns#" inkscape:version="0.92.0 r15299" sodipodi:docname="abcam.svg"
	 xmlns="http://www.w3.org/2000/svg" xmlns:xlink="http://www.w3.org/1999/xlink" x="0px" y="0px" viewBox="0 0 184.3 65"
	 style="enable-background:new 0 0 184.3 65;" xml:space="preserve">
<style type="text/css">
	.st0{fill-rule:evenodd;clip-rule:evenodd;}
</style>
<sodipodi:namedview  bordercolor="#666666" borderopacity="1.0" fit-margin-bottom="0" fit-margin-left="0" fit-margin-right="0" fit-margin-top="0" id="base" inkscape:current-layer="layer1" inkscape:cx="82.000403" inkscape:cy="16.999994" inkscape:document-units="mm" inkscape:pageopacity="0.0" inkscape:pageshadow="2" inkscape:window-height="744" inkscape:window-maximized="1" inkscape:window-width="1280" inkscape:window-x="-4" inkscape:window-y="-4" inkscape:zoom="5.4694853" pagecolor="#ffffff" showgrid="false" units="px">
	</sodipodi:namedview>
<g id="layer1" transform="translate(-115.88739,-325.4994)" inkscape:groupmode="layer" inkscape:label="Layer 1">
	<path id="logo" inkscape:connector-curvature="0" class="st0" d="M254.9,349.4h-8.2v5.3h3.2V369h-3.2v5.3h12V369h-3.2v-8.1
		c0-3.9,2-6.3,5.2-6.3c3.3,0,4.8,2,4.9,6.4v8h-3.2v5.3h11.9V369H271v-8.4c0-3.7,2.1-6,5.4-6c3.2,0,4.9,2,4.9,6v8.4h-3.2v5.3H290V369
		h-3.2v-9.8c0.1-2-0.3-4-1.2-5.8c-1.7-2.8-4.7-4.5-7.9-4.5c-3.5-0.1-6.8,2-8.2,5.3c-1.7-3.5-4.3-5.3-7.6-5.3c-3,0-5.3,1.4-7.1,4.3
		L254.9,349.4L254.9,349.4z M240.7,354.7h3.2v-5.3h-8.8v3.6c-1.7-2.6-4.7-4.1-7.8-4c-6.9,0-12.5,5.9-12.5,13
		c-0.1,6.9,5.4,12.6,12.3,12.7c3.1,0.2,6.1-1.2,8-3.7v3.3h8.8V369h-3.2L240.7,354.7z M235.1,361.8c0,4.1-3.3,7.4-7.4,7.4
		c0,0,0,0,0,0c-4-0.1-7.2-3.4-7.1-7.4c0.1-4,3.4-7.2,7.4-7.1C231.9,354.7,235.1,357.9,235.1,361.8 M212.5,349.4h-4.8v2.4
		c-1.8-2-4.3-3.2-7-3.1c-6.8,0-12.4,6.1-12.4,13.2c0,7.2,5.7,13.1,12.9,13.2c5.6,0,10.6-3.7,12.3-9h-6.3c-1.1,2.2-3.4,3.6-5.9,3.5
		c-4.1,0-7.4-3.4-7.3-7.5c0,0,0-0.1,0-0.1c-0.2-4,2.9-7.4,6.9-7.6c2.6-0.1,5.1,1.2,6.5,3.4h5.2L212.5,349.4z M166.5,341h-8.8v5.3
		h3.2V369h-3.2v5.3h8.8v-3.7c1.8,2.7,4.9,4.2,8.1,4.1c6.6,0,12.1-5.8,12.1-12.8c0-7-5.6-12.8-12.6-12.9c-3.1-0.1-6,1.4-7.6,4V341z
		 M181.1,361.7c0.1,4.2-3.2,7.6-7.4,7.7c-4.2-0.1-7.5-3.6-7.5-7.7c0-4.1,3.4-7.4,7.5-7.4C177.8,354.4,181,357.7,181.1,361.7
		 M152,354.7h3.2v-5.3h-8.8v3.6c-1.7-2.6-4.7-4.1-7.8-4c-6.9,0-12.5,5.9-12.5,13c-0.1,6.9,5.4,12.6,12.3,12.7c3.1,0.2,6.1-1.2,8-3.7
		v3.3h8.8V369H152L152,354.7L152,354.7z M146.4,361.8c0,4.1-3.3,7.4-7.4,7.4c0,0,0,0,0,0c-4,0-7.3-3.3-7.2-7.3c0-4,3.3-7.3,7.3-7.2
		C143.1,354.6,146.4,357.8,146.4,361.8C146.4,361.8,146.4,361.8,146.4,361.8"/>
</g>
</svg>
