<?xml version="1.0" encoding="UTF-8"?>
<svg id="_0_0_0_100" data-name="0 0 0 100" xmlns="http://www.w3.org/2000/svg" version="1.1" viewBox="0 0 208.38 67.44">
  <defs>
    <style>
      .cls-1 {
        fill: #fff;
        stroke-width: 0px;
      }
    </style>
  </defs>
  <path class="cls-1" d="M114.11,54.18c-2.21,2.63-5.83,4.09-9.36,4.09-6.82,0-11.95-4.7-11.95-11.85,0-6.35,4.33-11.91,11.1-11.91,6.31,0,10.78,5.32,10.78,11.67,0,.61-.05,1.22-.14,1.74h-15.81c.33,3.2,2.92,5.41,6.16,5.41,2.59,0,4.66-1.46,5.74-2.63l3.48,3.48ZM108.42,43.45c-.19-2.02-2.02-4-4.52-4s-4.61,1.93-4.89,4h9.41Z"/>
  <polygon class="cls-1" points="125.7 48.91 131.96 34.98 138.31 34.98 127.82 57.8 123.58 57.8 113.09 34.98 119.44 34.98 125.7 48.91"/>
  <path class="cls-1" d="M153.61,40.39c-.42-.14-1.32-.23-2.21-.23-2.68,0-4.8,1.93-5.55,3.29v14.35h-6.12v-22.82h6.12v2.05c1.36-1.69,3.62-2.52,6.4-2.52.89,0,1.41.1,2.07.19l-.71,5.69Z"/>
  <path class="cls-1" d="M180.55,57.8v-22.82h6.12v1.64c1.74-1.41,3.67-2.11,6.21-2.11,3.15,0,6.02,1.41,7.9,3.67,1.51,1.79,2.35,4.09,2.35,8v11.62h-6.12v-12.09c0-2.26-.52-3.43-1.36-4.28-.8-.8-2.02-1.27-3.43-1.27-2.59,0-4.7,1.65-5.55,2.82v14.82h-6.12Z"/>
  <path class="cls-1" d="M55.62,35.08h-6.12v1.55c-1.79-1.41-3.95-2.12-6.44-2.12-6.21,0-11.2,5.18-11.2,11.91,0,3.1,1.13,5.93,2.92,8,2.02,2.35,5.22,3.86,8.61,3.86,2.21,0,4.29-.66,6.11-2.12v1.65h6.12v-22.72s0,0,0,0ZM44.22,52.64c-3.45,0-6.25-2.8-6.25-6.25s2.8-6.25,6.25-6.25,6.25,2.8,6.25,6.25-2.8,6.25-6.25,6.25Z"/>
  <path class="cls-1" d="M166.22,34.51c-6.91,0-12.14,5.32-12.14,11.91s5.22,11.86,12.14,11.86,12.14-5.27,12.14-11.86-5.22-11.91-12.14-11.91ZM166.23,52.64c-3.45,0-6.25-2.8-6.25-6.25s2.8-6.25,6.25-6.25,6.25,2.8,6.25,6.25-2.8,6.25-6.25,6.25Z"/>
  <rect class="cls-1" x="58.55" y="19.27" width="6.12" height="38.53"/>
  <path class="cls-1" d="M84.49,19.27v17.36c-1.79-1.41-3.95-2.12-6.45-2.12-6.21,0-11.2,5.18-11.2,11.91,0,3.1,1.13,5.93,2.92,8,2.02,2.35,5.22,3.86,8.61,3.86,2.21,0,4.29-.66,6.12-2.12v1.65h6.12s0-38.53,0-38.53h-6.12ZM79.21,52.64c-3.45,0-6.25-2.8-6.25-6.25s2.8-6.25,6.25-6.25,6.25,2.8,6.25,6.25-2.8,6.25-6.25,6.25Z"/>
  <g>
    <polygon class="cls-1" points="7.42 32.13 0 19.27 14.85 19.27 14.85 27.84 7.42 32.13"/>
    <polygon class="cls-1" points="14.85 57.8 0 57.8 7.42 44.94 14.85 49.23 14.85 57.8"/>
    <polygon class="cls-1" points="14.85 44.99 11.12 38.53 14.85 32.08 14.85 44.99"/>
    <polygon class="cls-1" points="22.24 19.27 29.7 19.27 18.52 25.72 22.24 19.27"/>
    <polygon class="cls-1" points="37.04 19.27 44.49 19.27 48.22 25.72 37.04 19.27"/>
    <polygon class="cls-1" points="6.75 42.43 0 38.53 6.75 34.64 9 38.53 6.75 42.43"/>
    <polygon class="cls-1" points="16.68 57.8 16.68 51.84 20.12 57.8 16.68 57.8"/>
    <polygon class="cls-1" points="55.62 19.27 51.11 27.07 46.61 19.27 55.62 19.27"/>
    <polygon class="cls-1" points="22.24 57.8 18.52 51.35 29.7 57.8 22.24 57.8"/>
    <polygon class="cls-1" points="36.55 17.43 41.71 14.45 43.43 17.43 36.55 17.43"/>
    <polygon class="cls-1" points="23.44 63.54 16.68 67.44 16.68 59.64 21.18 59.64 23.44 63.54"/>
    <polygon class="cls-1" points="30.19 59.64 25.03 62.62 23.3 59.64 30.19 59.64"/>
    <polygon class="cls-1" points="25.94 12.86 33.37 0 40.79 12.86 33.37 17.15 25.94 12.86"/>
    <polygon class="cls-1" points="13.5 46.33 8.34 43.35 10.06 40.37 13.5 46.33"/>
    <polygon class="cls-1" points="25.03 14.45 30.19 17.43 23.3 17.43 25.03 14.45"/>
    <polygon class="cls-1" points="8.34 33.72 13.5 30.74 10.06 36.7 8.34 33.72"/>
    <polygon class="cls-1" points="16.68 25.23 16.68 19.27 20.12 19.27 16.68 25.23"/>
    <polygon class="cls-1" points="16.68 17.43 16.68 9.63 23.44 13.53 21.18 17.43 16.68 17.43"/>
  </g>
  <g>
    <path class="cls-1" d="M203.13,31.61h1.99v.39h-.79v2.51h-.42v-2.51h-.79v-.39Z"/>
    <path class="cls-1" d="M207.12,33.89h-.29l-.85-1.33v1.95h-.42v-2.9h.29l1.12,1.77,1.12-1.77h.29v2.9h-.41v-1.95l-.85,1.33Z"/>
  </g>
</svg>