<?xml version="1.0" encoding="utf-8"?>
<!-- Generator: Adobe Illustrator 27.9.0, SVG Export Plug-In . SVG Version: 6.00 Build 0)  -->
<svg version="1.1" id="图层_1" xmlns="http://www.w3.org/2000/svg" xmlns:xlink="http://www.w3.org/1999/xlink" x="0px" y="0px"
	 viewBox="0 0 652 389.5" style="enable-background:new 0 0 652 389.5;" xml:space="preserve">
<polygon points="625.2,151.5 617.1,194.8 616.9,194.8 593,151.5 582.4,151.5 569.9,219.4 583.6,219.4 591.6,177 591.8,177 
	615.2,219.4 626.3,219.4 639.1,151.5 "/>
<polygon points="493.4,219.4 507.3,219.4 520,151.5 506.8,151.5 483.2,179.5 468.8,151.5 458,151.5 445.4,219.4 459.2,219.4 
	467.2,176.5 467.4,176.5 480,200.6 501.3,175.8 501.5,175.8 "/>
<polygon points="414.4,151.5 400.4,151.5 387.8,219.4 401.6,219.4 407.7,187.6 428.7,219.4 446.1,219.4 422.1,183.9 451.9,151.5 
	435.3,151.5 408.8,181.5 "/>
<polygon points="461.7,263.4 439.9,263.4 443.1,246.1 469.9,246.1 471.9,235.5 431.2,235.5 418.6,303.3 462.5,303.3 472.6,292.8 
	434.4,292.8 438,273.9 459.7,273.9 "/>
<g>
	<path d="M376.7,149.9c-3.7,0-7.4,0.2-10.8,1.2c-17,4.7-29.3,20.7-29.3,40.5c0,14,8.9,29.4,27.1,29.4c13.9,0,20.9-6.5,26.5-10
		l-5.6-8.8c-3.5,2.4-6,4.5-9.8,6c-2.4,0.9-5.3,1.7-9.4,1.7c-8.1,0-14.5-7.2-14.5-18.5c0.1-14.4,8.3-30.2,23.5-30.2
		c7.4,0,9.8,3,12.4,5.7l7-8.6C389.8,153.5,383.8,149.9,376.7,149.9"/>
	<polygon points="379.6,303.3 393.5,303.3 404.3,246.1 421.2,246.1 431.4,235.5 374.2,235.5 372.2,246.1 390.3,246.1 	"/>
	<polygon points="330.4,179.5 308.6,179.5 311.8,162 338.6,162 340.5,151.5 299.9,151.5 287.3,219.4 332.6,219.4 342.8,208.9 
		303,208.9 306.7,190 328.4,190 	"/>
	<polygon points="332.6,303.3 371.9,303.3 382.1,292.8 348.4,292.8 359,235.5 345.2,235.5 	"/>
	<path d="M324.9,235.5l-8.5,45.8c-1.4,7.5-7.6,12.2-14.6,12.2c-7,0-11.2-5.7-10.1-12.2l8.5-45.8h-13.9l-8.2,43.9
		c-3.1,16.1,6.8,25.3,21.4,25.3c18.1,0,27.9-8.8,31-25.3l8.2-43.9L324.9,235.5L324.9,235.5z"/>
</g>
<g>
	<path d="M197,225c-4,0-7.8,0.1-11.5,1.1c-19.1,4.9-33.1,22.5-33.1,44.1c-0.1,18.6,12.5,34.9,30.9,34.9c14.8,0,22.1-6.3,27.4-10.3
		l-5.2-9.2c-4.9,4.3-9.1,8.1-19.3,8.1c-10.8,0-18.9-9.2-18.9-23c0-17.4,9.5-34.9,27.6-34.9c6.6,0,11.4,4.2,14.8,7.9l7.3-8.5
		C213.1,231.4,205.4,225,197,225"/>
	<path d="M197.6,43.3c-14-22.1-42.4-33-66.6-33c-62.8,0-115.6,54.6-115.6,120.9c0,12.7,2.3,25,6.5,36.2v-0.1
		c-0.8-2.9-1.5-9-1.5-11.1c0-15.1,8.4-27.5,20.3-33.6c0.9-2.4,2-4.8,3.4-7.2c9.4-17.4,32.3-35.8,61-35.8c25.4,0,49.9,15.1,77.8,15.1
		c1.6,0,3.2-0.1,4.7-0.4c0.1-15.1-5.8-29.4-14.2-41.3c-8.5-12.1-24.3-20.8-37.9-22c2.3-0.1,4.4-0.5,6.6-0.5
		c28.4-0.2,51.3,23.8,51.3,53.8c0,3.1-0.2,6-0.6,8.8c8.2-2.9,13.4-9.8,13.7-20.4C206.7,65.7,204.1,53.3,197.6,43.3"/>
</g>
<g>
	<path d="M172.1,111.4c-26.7,0.1-53.4-16.7-84.4-16.7c-23.5,0-31.7,8-40.3,21.3c-0.9,1.4-1.7,3-2.4,4.7c4-1.4,8.2-2.3,12.6-2.3
		c26.7-0.1,53.4,16.7,84.5,16.7c23.5,0,31.7-8,40.2-21.3c0.9-1.4,1.7-3,2.4-4.7C180.7,110.6,176.5,111.3,172.1,111.4"/>
	<path d="M208.2,63.4c-1-2.6-0.5-0.8-0.5-0.8s1.5,8.8,1.5,11.1c0,15.1-8.4,27.5-20.3,33.7c-0.9,2.4-2.1,4.8-3.4,7.2
		c-9.4,17.5-32.2,35.8-61,36c-25.4,0-49.9-15.1-77.8-15.1c-1.6,0-3.2,0.1-4.7,0.4c-0.1,15.1,5.8,29.4,14.2,41.3
		c8.5,12.1,24.3,20.8,37.9,22c-2.3,0.1-4.4,0.5-6.7,0.5c-28.4,0.2-51.3-23.8-51.3-53.8c0-3.1,0.2-6,0.6-8.8
		c-8.2,2.9-13.4,9.8-13.8,20.4c-0.2,6.7,2.4,19.1,9,29.3c14.2,22.2,42.6,33.5,67.2,33.5c63,0,115.6-51.9,115.6-119
		C214.8,87.7,212.6,74.9,208.2,63.4"/>
	<path d="M535.5,192.9l10.1-20.2h0.5l4,20.2H535.5z M554.3,151.5h-8.7l-38.3,67.8h14.9l8.2-15.9h21.6l3.2,15.9h15L554.3,151.5z"/>
	<path d="M491.6,263.6l3.3-17.6h5c9.7,0,11.6,3.9,10.7,8.8c-1.1,6.2-4.8,8.8-12.8,8.8h-6.1V263.6z M506.4,272.3
		c6.7-0.8,16.5-4.8,18.7-17.6c2-11.4-6.1-19.4-21.4-19.4h-20.9l-12.6,67.9h13.9l5.7-30.6h0.3l19.9,30.6H528L506.4,272.3z"/>
	<path d="M271.9,196.5c-2,10.5-10.9,12.4-23.3,12.4h-8.3l4.5-25h8.3C264.1,183.9,274,185.7,271.9,196.5 M250.7,153.3h6.5
		c10.3,0,15.8,2.5,14.3,10c-1.1,6.1-5.1,10-16.6,10h-8.1L250.7,153.3z M272.5,178.3v-0.2c3.4-1.7,11.7-3.9,13.5-14.7
		c2.5-14.4-8.3-20.6-25.6-20.6h-21.7l-14.3,76.6h26.4c22.4,0,32.9-7.8,35.3-20.3C288.3,187.9,279.9,179.7,272.5,178.3"/>
	<path d="M243.6,293.4c-1.6,0.4-3.3,0.4-5,0.4c-6.7,0-13.7-7.6-13.7-19.2c0-11.1,5.7-25.1,16.4-28.7c2-0.7,4.2-0.8,6.4-0.8
		c6.7,0,13.7,7.5,13.7,19C261.4,275.7,255.5,290.5,243.6,293.4 M249.2,234c-4.1,0-7.9,0.5-11.5,1.6c-15.9,5.1-26.4,21.1-26.4,39.9
		c0,14,8.4,29.1,25.8,29.1c3.6,0,6.9-0.2,10.2-1.2c16.7-4.8,27.7-21.2,27.7-40.4C274.9,249.2,266.5,234,249.2,234"/>
	<polygon points="186,366.9 184.4,376.2 156,376.2 165,326.3 175.2,326.3 167.8,366.9 	"/>
	<path d="M189.8,376.2l6.5-36.2h10.2l-6.6,36.2H189.8z M202.7,335.4c-2.9,0-4.9-2.1-4.9-5.2c0-3.7,2.8-6,5.8-6c3,0,5.1,2.1,5.1,5.3
		C208.7,333.2,206,335.5,202.7,335.4L202.7,335.4L202.7,335.4z"/>
	<path d="M208.7,376.2l5-28.2h-4.4l1.5-8.1h4.5l0.3-1.8c0.7-4.3,2.3-8.9,5.8-11.9c2.8-2.5,6.4-3.4,9.8-3.4c2.4,0,4.3,0.4,5.4,0.9
		l-1.7,8.5c-0.9-0.4-1.9-0.6-3.2-0.6c-3.3,0-5.3,3-5.9,6.6l-0.4,1.8h6.9l-1.5,8.1h-6.8l-5,28.2L208.7,376.2L208.7,376.2L208.7,376.2
		z"/>
	<path d="M258.4,374.1c-4,2.2-9,2.9-12.8,2.9c-9.8,0-14.9-5.8-14.9-15.3c0-11,7.6-22.5,20.1-22.5c6.9,0,12,4.1,12,11
		c0,9.2-8.5,12.5-22.4,12.1c0.1,1,0.4,2.6,1.1,3.7c1.3,1.8,3.6,2.8,6.6,2.8c3.7,0,6.9-0.9,9.6-2.3L258.4,374.1z M249.4,346.9
		c-4.7,0-7.5,4.1-8.2,7.5c8,0.1,11.9-1,11.9-4.5C253.2,348.2,251.8,346.9,249.4,346.9"/>
	<path d="M280.3,364.6c2.8,1.8,6.9,3.2,11.2,3.2c3.9,0,7.5-1.9,7.5-5.8c0-2.9-2.1-4.7-6.4-7.1c-5-2.8-9.8-6.8-9.8-13.2
		c0-10.1,8.3-16.2,18.6-16.2c5.8,0,9.2,1.4,11.2,2.5l-3.2,8.9c-1.6-0.9-5-2.2-8.8-2.1c-4.8,0-7.3,2.5-7.3,5.2c0,2.9,2.9,4.8,6.9,7.1
		c5.8,3.1,9.5,7.2,9.5,13.1c0,11.1-8.8,16.8-19.4,16.8c-6.6-0.1-11.4-1.8-13.6-3.6L280.3,364.6z"/>
	<path d="M337.9,375c-2.2,1.1-5.7,1.9-9.8,1.9c-8.5,0-14.5-5.5-14.5-14.8c0-12.9,9.4-23,22.5-23c2.9,0,5.5,0.6,7,1.2l-2.5,8.2
		c-1.2-0.5-2.6-0.9-4.6-0.9c-7.2,0-11.7,6.5-11.7,13.2c0,4.9,3,7.5,6.8,7.5c2.9,0,5-0.7,6.9-1.5L337.9,375L337.9,375z"/>
	<path d="M343.4,376.2L350,340h10.2l-6.6,36.2H343.4z M356.3,335.4c-2.8,0-4.9-2.1-4.9-5.2c0-3.7,2.8-6,5.8-6c3,0,5.1,2.1,5.1,5.3
		C362.3,333.2,359.6,335.5,356.3,335.4L356.3,335.4L356.3,335.4L356.3,335.4z"/>
	<path d="M389.8,374.1c-4,2.2-9,2.9-12.8,2.9c-9.8,0-14.9-5.8-14.9-15.3c0-11,7.6-22.5,20-22.5c6.9,0,12,4.1,12,11
		c0,9.2-8.5,12.5-22.4,12.1c0.1,1,0.4,2.6,1.1,3.7c1.3,1.8,3.6,2.8,6.6,2.8c3.7,0,6.9-0.9,9.6-2.3L389.8,374.1z M380.9,346.9
		c-4.7,0-7.5,4.1-8.2,7.5c8,0.1,11.9-1,11.9-4.5C384.6,348.2,383.2,346.9,380.9,346.9"/>
	<path d="M395.6,376.2l4.3-24.5c0.9-4.6,1.4-8.5,1.9-11.8h8.9l-0.6,6h0.2c3.2-4.7,7.5-6.9,12.1-6.9c5.6,0,8.8,3.7,8.8,9.9
		c0,1.7-0.3,4.3-0.5,6.1l-3.8,21.1h-10.2l3.6-20.1c0.2-1.3,0.4-2.6,0.4-4c0-2.6-0.9-4.4-3.5-4.4c-3.3,0-7.2,4.4-8.6,12.4l-2.9,16.1
		L395.6,376.2L395.6,376.2L395.6,376.2z"/>
	<path d="M458.3,375c-2.2,1.1-5.7,1.9-9.8,1.9c-8.5,0-14.5-5.5-14.5-14.8c0-12.9,9.4-23,22.5-23c2.9,0,5.5,0.6,7,1.2l-2.5,8.2
		c-1.2-0.5-2.6-0.9-4.7-0.9c-7.2,0-11.7,6.5-11.7,13.2c0,4.9,3,7.5,6.8,7.5c2.9,0,5-0.7,6.9-1.5L458.3,375z"/>
	<path d="M491.3,374.1c-4,2.2-9,2.9-12.9,2.9c-9.8,0-14.8-5.8-14.8-15.3c0-11,7.6-22.5,20-22.5c6.9,0,12,4.1,12,11
		c0,9.2-8.5,12.5-22.4,12.1c0.1,1,0.4,2.6,1.1,3.7c1.3,1.8,3.6,2.8,6.6,2.8c3.7,0,6.9-0.9,9.6-2.3L491.3,374.1z M482.3,346.9
		c-4.8,0-7.5,4.1-8.2,7.5c8,0.1,11.9-1,11.9-4.5C486.1,348.2,484.7,346.9,482.3,346.9"/>
	<path d="M498.3,366.6c2,1,5.6,2.6,8.9,2.6c2.9,0,4.3-1.5,4.3-3.3c0-1.7-1.1-3-4.3-4.7c-3.9-2.1-7.3-5.1-7.3-9.7
		c0-7.6,6.2-12.5,15.2-12.5c4,0,7.2,0.9,8.8,1.8l-2.4,7.6c-1.4-0.6-3.9-1.6-6.9-1.6c-2.8,0-4.5,1.2-4.5,3.2c0,1.5,1.4,2.7,4.2,4.2
		c3.8,2,7.7,4.9,7.7,10c0,8.3-6.7,12.8-15.9,12.8c-4.3-0.1-8.5-1.3-10.5-2.8L498.3,366.6z"/>
</g>
</svg>
