<?xml version="1.0" encoding="utf-8"?>
<!-- Generator: Adobe Illustrator 28.3.0, SVG Export Plug-In . SVG Version: 6.00 Build 0)  -->
<svg version="1.0" id="text" xmlns="http://www.w3.org/2000/svg" xmlns:xlink="http://www.w3.org/1999/xlink" x="0px" y="0px"
	 viewBox="0 0 1148.2 400.6" style="enable-background:new 0 0 1148.2 400.6;" xml:space="preserve">
<path d="M300.4,146.1c-15.2,0-23.2,12.8-23.2,12.8v-1.4c0-5-3.9-9.4-8.7-9.4h-6.8v58.7c0,9.1,2.9,15,11.6,15h4.6l0-43.5
	c0-10.8,7-19.4,17.8-19.4c9.5,0,14.1,5,14.4,16.5v32c0.1,8.7,3.1,14.3,11.5,14.3h4.7l0-50.6C326.4,154.6,316.3,146.1,300.4,146.1
	L300.4,146.1z"/>
<path d="M493.7,135c0-9.1-2.9-15-11.6-15h-4.6v0c0,0,0,36.6,0,37.6c-5.2-7.9-15.5-11.5-24.8-11.5c-16.1,0-31.9,11.7-31.9,38.3
	c0,22.1,11.3,39.3,34.5,39.3c13.4,0,19.9-6.6,22.6-11.8l0,0c1,6,4.2,9.7,11.1,9.8h0c0,0,2.1,0,4.7,0L493.7,135L493.7,135z
	 M457.4,210.9c-14.1,0-20.3-12.5-20.3-25.2c0-13.2,5.4-26.8,20.6-26.8c12.5,0,20.4,9.7,20.4,25.9C478,197.6,471.9,210.9,457.4,210.9
	L457.4,210.9L457.4,210.9z"/>
<path d="M542.7,146.1L542.7,146.1l-12,0h0c-7,0-12.6,5.6-12.6,12.6l0,0.3l24.6,0c6.3,0,14,2,14,9.9c0,9.5-9.8,8.9-22,10.3
	c-13.5,1.7-28.4,4.7-28.4,23c0,14.4,12,21.5,25.2,21.5c8.6,0,19-2.7,25.4-8.9c1.5,4.3,4.7,6.8,10.3,6.9h4.7v-54.3
	C572,152,557,146.1,542.7,146.1L542.7,146.1z M555.8,195.2c0,9.2-9.7,15.5-18.3,15.5c-5.7,0-14.1-1.8-14.9-9.2
	c-0.9-8.5,6.3-11.1,13.3-12.2c7.1-1.3,15-1.1,20-4.4V195.2L555.8,195.2z"/>
<path d="M157.2,138.6L157.2,138.6L157.2,138.6L157.2,138.6L157.2,138.6z M166.2,176.6h-29.7c-12.9,0-11.6,10.7-11.6,12.6
	c0.7,0,26.2,0,26.2,0c-3.2,14.2-15,21.2-28.8,21.2c-20.3,0-32.9-17.7-32.9-35.8c0-18.2,12.6-36.1,32.9-36.1c5.2,0,12.2,1.2,16.3,3.6
	l0,0c2.1,1.2,4.5,1.7,7.1,1.7c4.5,0,8.7-2,11.4-5.2c-7.5-9-21.5-13.7-34.9-13.7c-28.4,0-49.5,21.1-49.5,49.7
	c0,28.7,21.1,49.6,49.5,49.6c13.1,0,22.4-3.7,29-9c1.6,4.1,4.7,6.6,10.4,6.6h4.6V176.6L166.2,176.6z"/>
<path d="M214.9,146.3c-21.9,0-35.6,17.9-35.6,38.9c0,22.7,13.7,38.7,36.8,38.7c11.7,0,27-5.4,32.8-14.6l-0.1-0.1
	c-1.8-3.2-5.2-5.4-9.2-5.4c-3.8,0-5.7,1.8-6.8,2.5c-3.8,3-11.6,4.8-16.8,4.8c-13.5,0-20.5-10.3-20.5-21.8h54.2
	C252.4,167.2,238.1,146.3,214.9,146.3L214.9,146.3z M214.9,159.1c10.2,0,17,8.1,18.3,17.5h-37.5C197,166.6,204.4,159.1,214.9,159.1
	L214.9,159.1z"/>
<path d="M373.8,146.3c-22,0-35.6,17.9-35.6,38.9c0,22.7,13.7,38.7,36.8,38.7c11.7,0,27-5.4,32.8-14.6l-0.1-0.1
	c-1.8-3.2-5.2-5.4-9.2-5.4c-3.8,0-5.7,1.8-6.8,2.5c-3.8,3-11.6,4.8-16.8,4.8c-13.6,0-20.5-10.3-20.5-21.8h54.1
	C411.3,167.2,397,146.3,373.8,146.3L373.8,146.3z M373.8,159.1c10.2,0,17,8.1,18.3,17.5h-37.5C355.8,166.6,363.2,159.1,373.8,159.1
	L373.8,159.1z"/>
<path d="M605.3,146v-10.9c-0.1-8.4-6.9-15.1-15.3-15.1h-0.9l0,86.8c0,9.1,2.9,15,11.6,15h4.6V159h9.3v0c6.9,0,12.5-5.6,12.5-12.5
	V146H605.3L605.3,146z M605.3,135v0.1l0,0V135L605.3,135z"/>
<path d="M661.4,146.1L661.4,146.1l-12,0l0,0c-6.9,0-12.6,5.6-12.6,12.6l0,0.3l24.6,0c6.4,0,14,2,14,9.9c0,9.5-9.7,8.9-22,10.3
	c-13.5,1.7-28.4,4.7-28.4,23c0,14.4,12,21.5,25.2,21.5c8.6,0,19-2.7,25.4-8.9c1.5,4.3,4.6,6.8,10.3,6.9h4.7v-54.3
	C690.7,152,675.7,146.1,661.4,146.1L661.4,146.1z M674.4,195.2c0,9.2-9.7,15.5-18.3,15.5c-5.7,0-14.1-1.8-14.9-9.2
	c-0.9-8.5,6.3-11.1,13.2-12.2c7.1-1.3,15-1.1,20-4.4V195.2L674.4,195.2z"/>
<path d="M969.3,182.2L969.3,182.2c0-20.6-8-40-22.6-54.5c-32.9-32.9-86.4-32.9-119.2,0c-36,36-36,94.5,0,130.5
	c18.4,18.4,42.8,28.9,68.9,29.6l0.7-25.1c-19.6-0.5-37.9-8.4-51.8-22.2c-26.1-26.2-26.1-68.7,0-94.9c23.1-23.1,60.6-23.1,83.6,0
	c3.6,3.6,6.6,7.6,8.9,11.8l0,0C944.2,169.5,955.6,178.7,969.3,182.2L969.3,182.2z"/>
<path d="M1012.4,44.7l-2.5,3.6c45,40.7,66.6,108,13.7,149.3c0,77.1-59.7,125.6-121.5,125.6c-64.2,0-129.6-42-129.6-121.6
	c0-43.1,19.8-75.2,36.1-91.4c20.5-20.5,47.8-31.8,76.9-31.8c29,0,56.3,11.3,76.8,31.8c19,18.9,28.9,44.2,27.9,71h0
	c20.9-8.7,35.6-29.3,35.6-53.3c0-12-3.7-23.1-9.9-32.4l0,0c-5.1-7.6-11-14.7-17.6-21.3C968,44.1,927.9,27.5,885.3,27.5
	c-42.6,0-82.7,16.6-112.8,46.7c-32.9,32.9-51.1,76.7-51.1,123.3C721.5,306.2,801.8,374,902,374c105.5,0,173.7-85.1,173.7-178.1
	C1075.7,143.8,1064.7,92.1,1012.4,44.7L1012.4,44.7z"/>
</svg>
