<?xml version="1.0" encoding="utf-8"?>
<!-- Generator: Adobe Illustrator 27.9.0, SVG Export Plug-In . SVG Version: 6.00 Build 0)  -->
<svg version="1.1" id="Layer_1" xmlns="http://www.w3.org/2000/svg" xmlns:xlink="http://www.w3.org/1999/xlink" x="0px" y="0px"
	 viewBox="0 0 105.7 55.1" style="enable-background:new 0 0 105.7 55.1;" xml:space="preserve">
<g id="Ebene_1">
	<g>
		<path d="M101.2,39.8c-5.5,1.3-11.2,2.3-17,2.8c-11.4,0.7-22.9,1-34.2,0.2c-9.4-0.7-18.3-2.6-27-5.3c2.9-4.2,3.9-9.2,5.4-14
			c5-0.8,9.3-3.8,11.8-8.1c1.2-2.5,2.4-5.7,1-8.5c-0.4-0.9-1.1-1.4-1.9-2.1c-2.8-1.8-6.7-1.1-9.3,0.6c-6.1,3.2-7.1,10.1-8.8,16
			c-1.9,0.1-3.7-0.5-5.3-0.9c-0.3,0.6-0.6,1.3-0.7,1.9c1.7,0.6,3.5,1.2,5.5,1.3c-0.8,3.5-1.9,6.7-3.1,9.9c-0.4,0.7-0.4,1.6-1.1,2.1
			c-3.4-0.8-7.9-2-11.2,0c-1,0.8-1.6,1.9-1.6,3.1c0.2,1.7,1.3,3,2.7,3.7c4.7,2.2,10.3,0.7,14.1-2.1c3,1,5.9,2.1,8.9,3
			c9.3,2.5,18.8,4.7,29,4.3V48c14.8,0,29.4-2.3,43.1-5.9l0.2-0.2L101.2,39.8z M32.8,9.5c0.7-1.1,1.8-2.5,3.3-2.6
			c0.7,0.1,1.3,0,1.8,0.6c1.5,1.4,1,4,0.3,5.7c-1.5,4-5.2,6.9-9.2,7.9C30,17,30.9,13.1,32.8,9.5z M7.8,40.6c-0.4-0.3-1-0.7-1-1.3
			c0.1-0.5,0.3-1,0.8-1.3c2.2-1.2,4.7,0,6.8,0.7l0.4,0.2C13,40.4,10.3,41.6,7.8,40.6z"/>
		<path d="M57.2,20.3c1.5,0.1,3.4-0.2,4.2-1.7c0.4-0.7,0.3-1.7-0.1-2.4c-0.7-1-1.9-1.3-3-1.5c-1.6-0.2-3,0.3-3.9,1.5
			c-0.5,0.7-0.6,2,0,2.7C55,19.8,56.1,20.2,57.2,20.3z"/>
		<path d="M36,23.6c-3.2,1.2-6,4.6-6,8.2c0,2.1,1.3,3.8,3,4.9c5.4,3.2,12.2,0.6,17-2c0,0.1,0.2,0.1,0.1,0.2c0.2,1.5,1.7,2.9,3.1,3.2
			c3.7,0.5,7.1-1,9.9-3.2c1.1,2.1,3.6,3.2,6.1,3.5l0.1,0c3.4,0.1,6.2-1.5,8.7-3.6c0.8,1.6,2.1,2.6,3.6,3.3c2.8,0.9,5.9,0,8-2
			c0.3,0.8,1,1.5,1.6,1.9c3.2,1.5,6.7-0.4,9.2-2c-0.1-0.7-0.3-1.4-0.6-2.1c-1,0.5-2.5,1.4-3.6,0.5c-0.2-0.3-0.4-0.7-0.3-1.1l2.8-9.9
			c-2,0-4.1-0.1-6.2,0l-0.5,1.5c-0.3-0.4-0.6-0.8-1-1.1c-2.1-1.5-5.2-1-7.4-0.1c-3.4,1.6-6.1,4.8-6.1,8.7c-1.8,1.6-4.2,3.4-6.7,2.3
			c-1.3-0.7-1.2-2.4-1-3.7c0.4-2.1,1-4.4,3.1-5.3c1.4-0.6,2.7,0.3,3.7,1.1c0.3-0.9,0.6-1.9,0.8-2.9c-2.8-1.8-7.1-1.3-9.9,0.3
			c-2.8,1.7-5.3,4.7-5,8.3c-0.5,0.5-1.1,0.9-1.7,1.2c-0.9,0.4-2.3,1.2-3.3,0.3c-0.2-0.3-0.3-0.7-0.3-1.2c0.9-3.2,1.8-6.5,2.7-9.8
			c-2.3,0-4.7-0.1-6.9,0l-2.5,8.6c-1.9,1.3-3.9,2.1-6.1,2.7c-2.1,0.5-4.8,0.9-6.5-0.5c-0.5-0.5-0.7-1.3-0.5-2.1
			c3.7,0.3,7.7-0.2,10-2.9c0.7-1,1.2-2.5,0.6-3.8l-0.5-0.9C44.4,21.8,39.4,22.4,36,23.6z M85.8,27.8c0.6-1.1,1.4-2,2.6-2.5
			c0.9-0.2,1.7,0.3,2.1,0.9c0.8,2.2-0.6,4.2-1.1,6.1c-0.4,1.2-1.5,2.4-2.8,2.7c-0.7,0.1-1.4-0.2-1.8-0.8
			C84,32.1,85.2,29.9,85.8,27.8z M43.2,25.4c0.3,1.4-0.4,2.9-1.6,3.8c-1.2,0.7-2.6,1-4,0.7c0.6-1.8,1.2-3.8,2.7-5
			C41.2,24.6,42.8,24.2,43.2,25.4z"/>
	</g>
</g>
<g id="Ebene_2">
</g>
</svg>
