<?xml version="1.0" encoding="utf-8"?>
<!-- Generator: Adobe Illustrator 28.3.0, SVG Export Plug-In . SVG Version: 6.00 Build 0)  -->
<svg version="1.1" id="Layer_1" xmlns="http://www.w3.org/2000/svg" xmlns:xlink="http://www.w3.org/1999/xlink" x="0px" y="0px"
	 viewBox="0 0 235.6 53.2" style="enable-background:new 0 0 235.6 53.2;" xml:space="preserve">
<style type="text/css">
	.st0{fill-rule:evenodd;clip-rule:evenodd;}
</style>
<g>
	<g>
		<g>
			<path d="M227.3,20.5h1.5v0.3h-0.6v1.6h-0.3v-1.6h-0.6V20.5z"/>
			<path d="M229.1,20.5h0.5l0.5,1.4h0l0.5-1.4h0.4v1.8h-0.3v-1.4h0l-0.5,1.4h-0.3l-0.5-1.4h0v1.4h-0.3V20.5z"/>
		</g>
	</g>
	<path d="M68.4,28.8c0,4.5-3.6,8.2-8.2,8.2c-1.7,0-3.2-0.5-4.5-1.3V42c0,1.1-0.8,2-1.9,2c-1,0-1.9-0.9-1.9-2V29.1V29
		c0-0.1,0-0.1,0-0.2c0-4.5,3.7-8.2,8.2-8.2C64.8,20.6,68.4,24.3,68.4,28.8z M64.4,28.8c0-2.3-1.9-4.2-4.2-4.2
		c-2.3,0-4.2,1.9-4.2,4.2c0,2.3,1.9,4.2,4.2,4.2C62.5,33,64.4,31.1,64.4,28.8z"/>
	<path d="M84.6,27.9V35c0,1.1-0.9,2-2,2c-1.1,0-2.1-0.9-2.1-2v-7.1c0-1.7-1.4-3.2-3.2-3.2c-1.8,0-3.2,1.5-3.2,3.2V35
		c0,1.1-0.9,2-2,2c-1.1,0-2-0.9-2-2V14.9c0-1.1,0.9-2,2-2c1.1,0,2,0.9,2,2v6.5c1-0.5,2.1-0.8,3.2-0.8C81.3,20.6,84.6,23.9,84.6,27.9
		z"/>
	<path d="M101.2,33c-0.4-1-1.5-1.1-2.5-0.8c-1.6,1-3.2,1.1-4.6,1c-0.7-0.1-1.4-0.3-1.9-0.6l8.4-4.7c0.9-0.5,0.6-2.5,0.1-3.3
		c-2.1-3.7-6.7-5-10.5-2.8c-3.9,2.2-5.4,7.1-3.2,11.1l0,0c1.2,2.3,3.5,3.9,6.5,4.2c3.1,0.3,5.2-0.4,6.5-1.4
		C101,35,101.5,34,101.2,33z M92,24.9c1.7-1,3.6-0.6,4.8,0.8L90,29.5C89.4,27.6,90.3,25.9,92,24.9z"/>
	<path d="M177.4,33c-0.4-1-1.5-1.1-2.5-0.8c-1.6,1-3.2,1.1-4.6,1c-0.7-0.1-1.4-0.3-1.9-0.6l8.4-4.7c0.9-0.5,0.6-2.5,0.1-3.3
		c-2.1-3.7-6.7-5-10.5-2.8c-3.9,2.2-5.4,7.1-3.2,11.1l0,0c1.2,2.3,3.5,3.9,6.5,4.2c3.1,0.3,5.2-0.4,6.5-1.4
		C177.2,35,177.8,34,177.4,33z M168.2,24.9c1.7-1,3.6-0.6,4.8,0.8l-6.8,3.8C165.7,27.6,166.6,25.9,168.2,24.9z"/>
	<path d="M210.8,33c-0.4-1-1.5-1.1-2.5-0.8c-1.6,1-3.2,1.1-4.6,1c-0.7-0.1-1.4-0.3-1.9-0.6l8.4-4.7c0.9-0.5,0.6-2.5,0.1-3.3
		c-2.1-3.7-6.7-5-10.5-2.8c-3.9,2.2-5.4,7.1-3.2,11.1l0,0c1.2,2.3,3.5,3.9,6.5,4.2c3.1,0.3,5.2-0.4,6.5-1.4
		C210.6,35,211.2,34,210.8,33z M201.6,24.9c1.7-1,3.6-0.6,4.8,0.8l-6.8,3.8C199.1,27.6,199.9,25.9,201.6,24.9z"/>
	<path d="M103.6,35v-7.1c0-4,3.2-7.3,7.3-7.3c4,0,7.3,3.3,7.3,7.3V35c0,1.1-0.9,2-2,2c-1.1,0-2.1-0.9-2.1-2v-7.1
		c0-1.7-1.4-3.2-3.2-3.2c-1.8,0-3.2,1.5-3.2,3.2V35c0,1.1-0.9,2-2,2C104.5,37,103.6,36.1,103.6,35z"/>
	<path d="M119.4,28.9c0-4.5,3.7-8.2,8.2-8.2c4.5,0,8.2,3.7,8.2,8.2c0,4.5-3.7,8.2-8.2,8.2C123,37.1,119.4,33.5,119.4,28.9z
		 M131.8,28.9c0-2.3-1.9-4.2-4.2-4.2c-2.3,0-4.2,1.9-4.2,4.2c0,2.3,1.9,4.2,4.2,4.2C129.9,33.1,131.8,31.2,131.8,28.9z"/>
	<path d="M160.5,27.4V35c0,1.1-0.9,2-2,2c-1.1,0-2.1-0.9-2.1-2v-7.6c0-1.5-1.2-2.7-2.7-2.7c-1.5,0-2.7,1.2-2.7,2.7V35
		c0,1.1-0.9,2-2,2c-1.1,0-2-0.9-2-2v-7.6c0-1.5-1.2-2.7-2.7-2.7c-1.5,0-2.7,1.2-2.7,2.7V35c0,1.1-0.9,2-2.1,2c-1.1,0-2-0.9-2-2v-7.6
		c0-3.8,3-6.7,6.8-6.7c1.8,0,3.5,0.7,4.7,1.9c1.2-1.2,2.9-1.9,4.7-1.9C157.5,20.7,160.5,23.7,160.5,27.4z"/>
	<path d="M179.5,35v-7.1c0-4,3.2-7.3,7.3-7.3c4,0,7.3,3.3,7.3,7.3V35c0,1.1-0.9,2-2,2c-1.1,0-2.1-0.9-2.1-2v-7.1
		c0-1.7-1.4-3.2-3.2-3.2c-1.8,0-3.2,1.5-3.2,3.2V35c0,1.1-0.9,2-2,2C180.4,37,179.5,36.1,179.5,35z"/>
	<path d="M225.6,33.7c0.7,0.9,0.6,2.2-0.2,2.9c-0.4,0.3-0.9,0.5-1.3,0.5c-0.6,0-1.2-0.2-1.5-0.8l-3.6-4.3l-3.5,4.3
		c-0.4,0.5-1,0.8-1.6,0.8c-0.4,0-0.9-0.2-1.3-0.5c-0.9-0.7-1-2-0.3-2.9l4.1-4.9l-4.1-4.9c-0.7-0.9-0.6-2.2,0.3-2.9
		c0.9-0.7,2.1-0.6,2.9,0.2l3.5,4.3l3.6-4.3c0.7-0.9,2-1,2.9-0.2c0.9,0.7,1,2,0.2,2.9l-4,4.9L225.6,33.7z"/>
	<g>
		<path class="st0" d="M30.4,27.4c0,2.6-2.1,4.7-4.7,4.7s-4.7-2.1-4.7-4.7c0-2.6,2.1-4.7,4.7-4.7S30.4,24.8,30.4,27.4z"/>
		<path class="st0" d="M13.3,44.1c0,0,0-12.1,0-16.6c0-6.8,5.5-12.4,12.4-12.4c6.8,0,12.4,5.5,12.4,12.4c0,6.8-5.5,12.4-12.4,12.4
			c-1.4,0-2.7-0.2-4-0.7l0,8.6c1.3,0.3,2.6,0.4,4,0.4c11.4,0,20.7-9.3,20.7-20.7c0-11.4-9.3-20.7-20.7-20.7C14.3,6.8,5,16.1,5,27.5
			C5,34.3,8.3,40.3,13.3,44.1z"/>
	</g>
</g>
</svg>
